<svg width="1280" height="720" viewBox="0 0 1280 720" fill="none" xmlns="http://www.w3.org/2000/svg">
  <rect width="1280" height="720" fill="#F8FAFC"/>
  <rect x="0" y="0" width="272" height="720" fill="#0F172A"/>
  <rect x="40" y="52" width="128" height="22" rx="11" fill="#67E8F9"/>
  <rect x="32" y="124" width="208" height="46" rx="14" fill="#1E293B"/>
  <rect x="32" y="186" width="208" height="46" rx="14" fill="#1E293B"/>
  <rect x="32" y="248" width="208" height="46" rx="14" fill="#1E293B"/>
  <rect x="320" y="48" width="904" height="64" rx="18" fill="#E2E8F0"/>
  <rect x="320" y="148" width="280" height="124" rx="20" fill="#DCFCE7"/>
  <rect x="620" y="148" width="280" height="124" rx="20" fill="#DBEAFE"/>
  <rect x="920" y="148" width="304" height="124" rx="20" fill="#FDE68A"/>
  <rect x="320" y="304" width="904" height="336" rx="24" fill="#FFFFFF" stroke="#CBD5E1"/>
  <rect x="352" y="344" width="840" height="24" rx="12" fill="#E2E8F0"/>
  <rect x="352" y="390" width="840" height="180" rx="16" fill="#F8FAFC" stroke="#E2E8F0"/>
  <rect x="352" y="592" width="220" height="18" rx="9" fill="#CBD5E1"/>
  <text x="320" y="680" fill="#0F172A" font-family="Arial, sans-serif" font-size="28" font-weight="700">Inventory Workspace Screenshot Placeholder</text>
  <text x="320" y="708" fill="#475569" font-family="Arial, sans-serif" font-size="18">Replace with a real dashboard or inventory module screenshot.</text>
</svg>
