<svg width="1280" height="720" viewBox="0 0 1280 720" fill="none" xmlns="http://www.w3.org/2000/svg">
  <rect width="1280" height="720" fill="#0B1726"/>
  <rect x="48" y="40" width="1184" height="56" rx="16" fill="#13263D"/>
  <rect x="72" y="58" width="160" height="18" rx="9" fill="#4FD1C5"/>
  <rect x="930" y="58" width="80" height="18" rx="9" fill="#274766"/>
  <rect x="1030" y="58" width="80" height="18" rx="9" fill="#274766"/>
  <rect x="1130" y="50" width="72" height="32" rx="16" fill="#4FD1C5"/>
  <rect x="72" y="144" width="640" height="220" rx="28" fill="#13263D"/>
  <rect x="72" y="392" width="520" height="180" rx="24" fill="#13263D"/>
  <rect x="736" y="144" width="472" height="428" rx="28" fill="#112034"/>
  <rect x="72" y="176" width="260" height="28" rx="14" fill="#E6FFFA"/>
  <rect x="72" y="220" width="520" height="18" rx="9" fill="#2D4E6D"/>
  <rect x="72" y="250" width="460" height="18" rx="9" fill="#2D4E6D"/>
  <rect x="72" y="296" width="168" height="44" rx="22" fill="#4FD1C5"/>
  <rect x="256" y="296" width="168" height="44" rx="22" fill="#274766"/>
  <rect x="104" y="434" width="190" height="24" rx="12" fill="#C6F6D5"/>
  <rect x="104" y="474" width="380" height="18" rx="9" fill="#2D4E6D"/>
  <rect x="104" y="504" width="340" height="18" rx="9" fill="#2D4E6D"/>
  <rect x="776" y="184" width="392" height="200" rx="22" fill="#1A314D"/>
  <rect x="776" y="408" width="182" height="120" rx="18" fill="#1A314D"/>
  <rect x="986" y="408" width="182" height="120" rx="18" fill="#1A314D"/>
  <text x="72" y="660" fill="#E6FFFA" font-family="Arial, sans-serif" font-size="28" font-weight="700">Landing Page Screenshot Placeholder</text>
  <text x="72" y="692" fill="#9FB4C9" font-family="Arial, sans-serif" font-size="18">Replace with a real exported UI image when available.</text>
</svg>
